<svg width="24" height="24" viewBox="0 0 24 24" fill="none" xmlns="http://www.w3.org/2000/svg">
<path d="M18.43 3.16L19.04 7.02L22.55 8.81L20.78 12.31L22.56 15.81L19.02 17.6L18.41 21.46L14.52 20.85L11.75 23.61L8.97 20.81L5.11 21.45L4.49 17.56L1 15.78L2.78 12.28L1.01 8.81L4.52 7L5.13 3.17L9 3.81L11.78 1L14.55 3.77L18.43 3.16ZM9.28 7.31C8.88217 7.31 8.50064 7.46804 8.21934 7.74934C7.93804 8.03064 7.78 8.41218 7.78 8.81C7.78 9.20782 7.93804 9.58936 8.21934 9.87066C8.50064 10.152 8.88217 10.31 9.28 10.31C9.67782 10.31 10.0594 10.152 10.3407 9.87066C10.622 9.58936 10.78 9.20782 10.78 8.81C10.78 8.41218 10.622 8.03064 10.3407 7.74934C10.0594 7.46804 9.67782 7.31 9.28 7.31ZM14.28 14.31C13.8822 14.31 13.5006 14.468 13.2193 14.7493C12.938 15.0306 12.78 15.4122 12.78 15.81C12.78 16.2078 12.938 16.5894 13.2193 16.8707C13.5006 17.152 13.8822 17.31 14.28 17.31C14.6778 17.31 15.0594 17.152 15.3407 16.8707C15.622 16.5894 15.78 16.2078 15.78 15.81C15.78 15.4122 15.622 15.0306 15.3407 14.7493C15.0594 14.468 14.6778 14.31 14.28 14.31ZM8.19 17.31L16.78 8.72L15.37 7.31L6.78 15.9L8.19 17.31Z" fill="#4F0ED9"/>
</svg>
